:SAMPLES-PER-SECOND 30
:FULLY-SPECIFIED
:DEGREES
377
root  -4.0963 39.6304 -21.9037 -62.602 -87.3475 63.7928
RightUpLeg  -11.1369 -22.3177 -10.898
RightLeg  22.7241 -13.9715 -6.56132
RightFoot  0.353645 -1.32902 12.9723
RightToes  -1.33073e-015 0 -3.6325e-017
Spine  18.5406 0.971302 1.69243
Spine1  -18.3042 1.2663 -3.83502
HEad  0.0558455 9.62609 -2.80499
LeftShoulder1  0.119007 2.42362 -2.87268
LeftArm  -53.7759 -4.64491 -18.8495
LeftForeArm  22.287 -77.5221 -77.1768
LeftHand  -0.731421 2.221 26.4864
RightShoulder  0.153151 -2.32997 5.26535
RightArm  -64.0122 -8.24347 17.0659
RightForeArm  4.91239 75.9037 59.2285
RightHand  -1.80184 1.81809 -28.6856
LeftUpLeg  -13.5784 20.0143 9.81376
LeftLeg  23.3194 21.6515 10.1501
LeftFoot  9.23741 0.404501 -2.7156
LeftToes  -4.0021e-011 8.38769e-011 -3.99229e-011
378
root  -3.62358 38.5244 -21.3516 -70.7665 -88.1812 72.5407
RightUpLeg  -16.9851 -20.9116 -10.454
RightLeg  31.5181 -13.4656 -8.96191
RightFoot  -4.40661 -0.866829 13.7863
RightToes  -1.33073e-015 0 -3.6325e-017
Spine  22.4291 1.18595 1.97765
Spine1  -22.0534 1.4931 -3.6703
HEad  -2.41899 9.31453 -3.67361
LeftShoulder1  -0.0219082 4.03014 5.25517
LeftArm  -59.1225 -9.75553 -14.0981
LeftForeArm  -4.12069 -74.6917 -52.8633
LeftHand  -0.613524 2.82064 27.5486
RightShoulder  0.0180037 -3.25937 -0.64296
RightArm  -67.5356 -1.85084 9.40652
RightForeArm  -17.4439 71.4445 40.8649
RightHand  -1.83467 1.53846 -30.2531
LeftUpLeg  -17.8374 22.5434 10.5965
LeftLeg  29.6158 14.4914 9.03951
LeftFoot  2.01249 1.13187 -9.99886
LeftToes  -4.0021e-011 8.38769e-011 -3.99229e-011
379
root  -3.00611 37.0421 -20.8027 -81.1995 -88.518 82.9899
RightUpLeg  -23.2635 -21.0355 -11.0319
RightLeg  41.7012 -10.7011 -10.2811
RightFoot  -9.02935 -0.357548 14.4316
RightToes  -1.33073e-015 0 -3.6325e-017
Spine  26.2951 1.43608 1.59707
Spine1  -23.1222 1.74974 -2.84645
HEad  -8.53094 8.53725 -5.21836
LeftShoulder1  0.0988743 5.8744 14.0728
LeftArm  -65.7961 -12.1707 -9.93195
LeftForeArm  -27.4072 -67.4616 -32.2016
LeftHand  -0.109054 4.95685 32.2011
RightShoulder  -0.00817304 -4.08819 -7.2886
RightArm  -72.5364 2.00139 1.73048
RightForeArm  -36.7428 61.8361 24.8873
RightHand  -2.07068 1.70534 -33.2213
LeftUpLeg  -23.0498 26.2952 10.5327
LeftLeg  39.1143 8.94441 8.12492
LeftFoot  -6.59315 0.699873 -15.191
LeftToes  -4.0021e-011 8.38769e-011 -3.99229e-011
380
root  -2.4152 35.7225 -20.2708 -71.733 -88.2564 73.1036
RightUpLeg  -27.8271 -23.5616 -12.4585
RightLeg  49.4131 -7.37624 -9.47019
RightFoot  -11.7695 -0.0264051 14.2904
RightToes  -1.33073e-015 0 -3.6325e-017
Spine  28.6216 1.42553 0.947467
Spine1  -20.1749 1.74238 -2.08797
HEad  -16.8984 7.46466 -6.65525
LeftShoulder1  0.562944 8.83591 21.5626
LeftArm  -73.1066 -12.8956 -8.02616
LeftForeArm  -40.8366 -59.0119 -21.6498
LeftHand  0.698058 7.49497 36.7664
RightShoulder  0.0729789 -5.53302 -13.287
RightArm  -77.5121 2.80323 -4.25053
RightForeArm  -46.986 49.3675 15.4134
RightHand  -2.21079 2.00155 -33.9972
LeftUpLeg  -27.7184 29.4823 9.54185
LeftLeg  47.3283 5.58029 6.90896
LeftFoot  -12.0782 -0.0160686 -15.4393
LeftToes  -4.0021e-011 8.38769e-011 -3.99229e-011
381
root  -2.12129 35.1336 -19.7766 -45.0486 -87.6245 46.0081
RightUpLeg  -29.0083 -27.0802 -13.8668
RightLeg  52.1225 -5.26796 -7.64083
RightFoot  -12.4867 0.060663 14.5638
RightToes  -1.33073e-015 0 -3.6325e-017
Spine  28.8418 1.36287 0.423431
Spine1  -15.9913 1.64195 -1.34868
HEad  -22.8582 6.27912 -7.47309
LeftShoulder1  1.15008 11.7695 25.5941
LeftArm  -78.4398 -13.4943 -11.3513
LeftForeArm  -42.9531 -57.9573 -20.996
LeftHand  1.03364 8.36064 38.348
RightShoulder  0.241273 -7.44303 -16.688
RightArm  -79.8502 0.995652 -5.09269
RightForeArm  -49.7502 44.2554 13.1155
RightHand  -2.12104 1.89265 -33.1553
LeftUpLeg  -30.2876 31.2253 8.34479
LeftLeg  51.1201 3.44103 5.08907
LeftFoot  -14.4368 -0.272056 -13.1158
LeftToes  -4.0021e-011 8.38769e-011 -3.99229e-011
382
root  -2.23621 35.4455 -19.3108 -21.5493 -86.7117 22.1974
RightUpLeg  -26.5777 -28.7841 -14.787
RightLeg  49.5298 -5.24896 -6.89451
RightFoot  -10.7696 -0.159499 15.7586
RightToes  -1.33073e-015 0 -3.6325e-017
Spine  27.833 1.22706 0.476261
Spine1  -14.158 1.50034 -0.951809
HEad  -22.8671 5.645 -7.26174
LeftShoulder1  1.05753 11.7281 24.1103
LeftArm  -77.5105 -13.3952 -18.4827
LeftForeArm  -27.6382 -67.9146 -34.3081
LeftHand  0.686692 7.37213 37.9207
RightShoulder  0.2266 -7.96325 -15.2975
RightArm  -78.284 -2.56727 0.0185926
RightForeArm  -45.618 53.2146 18.2813
RightHand  -2.11948 1.83994 -33.3444
LeftUpLeg  -29.4626 31.0414 7.86766
LeftLeg  49.7793 2.6963 3.89592
LeftFoot  -14.7704 -0.261519 -11.6063
LeftToes  -4.0021e-011 8.38769e-011 -3.99229e-011
